<svg xmlns="http://www.w3.org/2000/svg" viewBox="0 0 512 512">
  <g>
    <path d="M239.78,346c-40.27,0-73.06-32.63-73.06-72.71,0-36.18,26.74-66.29,61.57-71.8l25.1-43.74a117.6,117.6,0,0,0-13.61-.79c-64.55,0-116.89,52.09-116.89,116.33s52.34,116.34,116.89,116.34,116.89-52.09,116.89-116.34a117.44,117.44,0,0,0-.9-14.49L312,284.45A73.09,73.09,0,0,1,239.78,346Z" style="fill: #fff"/>
    <path d="M415.11,273.33a174.78,174.78,0,0,1-175.33,174.5,175,175,0,0,1-124-51.07,174.5,174.5,0,0,1,124-297.93A177,177,0,0,1,284,104.42l29.76-51.85a234.43,234.43,0,0,0-74-11.91C110.65,40.66,6,144.81,6,273.33S110.65,506,239.78,506,473.56,401.85,473.56,273.33a231.28,231.28,0,0,0-12.74-75.92l-51.73,30.25A175.08,175.08,0,0,1,415.11,273.33Z" style="fill: #fff"/>
    <path d="M505.91,120.36a5.72,5.72,0,0,0-4.67-4.59l-83.6-14.3a6.06,6.06,0,0,1-4.92-4.78l-17-86.09A5.69,5.69,0,0,0,391,6.08a4.87,4.87,0,0,0-.93-.08,5.74,5.74,0,0,0-5,2.87L350.85,68.54l-29,50.5-29,50.6-21.8,38-21.89,38.14L234.66,271a5.7,5.7,0,0,0,5,8.53,5.75,5.75,0,0,0,2.9-.79l25-14.6,38.11-22.29,37.9-22.16L394,190.12l50.33-29.44,58.8-34.38A5.69,5.69,0,0,0,505.91,120.36Z" style="fill: #fff"/>
    <path d="M239.78,244.25c-40.53,2.45-36.71,57.35,0,58.16C280.31,300,276.49,245.07,239.78,244.25Z" style="fill: #fff"/>
  </g>
</svg>
